<svg xmlns="http://www.w3.org/2000/svg" xmlns:xlink="http://www.w3.org/1999/xlink" width="22" height="27" viewBox="0 0 22 27">
    <defs>
        <path id="a" d="M0 0h22v27H0z"/>
    </defs>
    <g fill="none" fill-rule="evenodd">
        <mask id="b" fill="#fff">
            <use xlink:href="#a"/>
        </mask>
        <path fill="#FF746A" d="M11 9.542c-.752 0-1.363.605-1.363 1.35 0 .746.61 1.35 1.363 1.35s1.363-.604 1.363-1.35c0-.745-.61-1.35-1.363-1.35m0-8.192c-5.313 0-9.636 4.28-9.636 9.542 0 2.159.712 4.196 2.059 5.893l.469.552L11 25.305l7.119-7.98.473-.557a9.374 9.374 0 0 0 2.045-5.875c0-5.262-4.323-9.543-9.637-9.543M11 27a.685.685 0 0 1-.51-.228l-7.63-8.554-.495-.582C.813 15.682 0 13.356 0 10.892 0 4.886 4.935 0 11 0c6.066 0 11 4.886 11 10.892 0 2.464-.813 4.79-2.35 6.727l-.499.587-7.64 8.566a.685.685 0 0 1-.51.228" mask="url(#b)"/>
    </g>
</svg>
