<svg xmlns="http://www.w3.org/2000/svg" xmlns:xlink="http://www.w3.org/1999/xlink" width="133" height="22" viewBox="0 0 133 22">
    <defs>
        <path id="a" d="M11.14 12.293V.456H.252v11.837h10.886z"/>
        <path id="c" d="M0 .394V16.24h12.135V.394H0z"/>
    </defs>
    <g fill="none" fill-rule="evenodd">
        <path fill="#000" d="M39.914.527a1.12 1.12 0 0 0-1.118 1.124c0 .62.5 1.123 1.118 1.123A1.12 1.12 0 0 0 41.03 1.65c0-.62-.5-1.124-1.117-1.124M109.13 13.932c-.224.17-.443.33-.657.481a5.679 5.679 0 0 1-.642.397 3.502 3.502 0 0 1-.654.27c-.228.067-.468.1-.72.1-.239 0-.469-.054-.69-.164a1.965 1.965 0 0 1-.591-.444 2.216 2.216 0 0 1-.405-.656 2.078 2.078 0 0 1-.152-.788c0-.268.066-.526.2-.772a2.86 2.86 0 0 1 .54-.698c.229-.219.494-.425.796-.62a9.91 9.91 0 0 1 .951-.539c.333-.166.674-.315 1.02-.449.348-.134.682-.254 1.005-.36v4.242zm2.04-7.437c-.14-.374-.359-.69-.675-.952-.315-.26-.729-.463-1.24-.608-.513-.145-1.14-.217-1.883-.217-.61 0-1.193.069-1.746.206a5.658 5.658 0 0 0-1.452.561c-.414.237-.751.517-.996.841a1.7 1.7 0 0 0-.369 1.047c0 .191.029.367.085.53.056.161.137.303.242.422a1.114 1.114 0 0 0 .852.381c.224 0 .409-.042.552-.127a.972.972 0 0 0 .342-.333c.084-.137.141-.298.173-.481.031-.184.047-.374.047-.571 0-.212.024-.422.074-.63.049-.208.142-.393.278-.555.137-.163.325-.293.563-.392.238-.099.555-.148.934-.148.337 0 .632.048.901.143.27.095.5.252.69.47.188.22.334.507.436.863.101.356.153.791.153 1.306v.709a61.53 61.53 0 0 0-1.551.413 17.65 17.65 0 0 0-1.541.507c-.498.19-.97.406-1.415.646-.445.24-.835.514-1.168.825-.333.31-.596.661-.789 1.052a2.94 2.94 0 0 0-.289 1.317c0 .402.067.777.2 1.122.133.345.334.645.586.899.253.254.558.453.916.598.357.144.757.216 1.198.216.478 0 .896-.054 1.258-.164.36-.109.69-.252.988-.428.298-.176.575-.37.83-.582.257-.211.51-.42.776-.624l.009 1.555h2.251l-.008-8.579c0-.451-.071-.864-.211-1.238z"/>
        <g transform="translate(121.87 4.32)">
            <mask id="b" fill="#fff">
                <use xlink:href="#a"/>
            </mask>
            <path fill="#000" d="M2.709 3.127c.158-.37.357-.69.6-.958.242-.268.518-.48.83-.634.312-.155.637-.233.973-.233.407 0 .787.078 1.142.233a2.894 2.894 0 0 1 1.545 1.602c.151.37.226.77.226 1.2l-5.606-.01c.036-.43.132-.83.29-1.2zm7.788 4.66a3.222 3.222 0 0 1-.541 1.03 4.243 4.243 0 0 1-.931.89 4.977 4.977 0 0 1-1.22.624 4.197 4.197 0 0 1-1.41.237 3.301 3.301 0 0 1-1.61-.401 3.877 3.877 0 0 1-1.261-1.111 5.429 5.429 0 0 1-.82-1.688 7.327 7.327 0 0 1-.295-2.12h8.425c0-.635-.123-1.242-.368-1.82a4.789 4.789 0 0 0-1.03-1.529A4.956 4.956 0 0 0 7.845.847a5.189 5.189 0 0 0-2.04-.391c-.834 0-1.593.158-2.277.476a5.108 5.108 0 0 0-1.75 1.322 6.08 6.08 0 0 0-1.126 2.01 7.73 7.73 0 0 0-.4 2.528c0 .761.145 1.475.437 2.142a5.564 5.564 0 0 0 2.944 2.925c.67.29 1.387.434 2.151.434.582 0 1.16-.111 1.73-.333a6.069 6.069 0 0 0 1.579-.905c.48-.38.9-.827 1.261-1.338.361-.511.622-1.06.784-1.645l-.642-.286z" mask="url(#b)"/>
        </g>
        <path fill="#000" d="M63.906 5.78a2.885 2.885 0 0 0-.904-.735 2.378 2.378 0 0 0-1.11-.27c-.764 0-1.514.193-2.25.577-.737.385-1.445.96-2.125 1.73V.537h-.642l-1.598.645V16.37h2.24V7.95c.252-.246.514-.47.783-.671.27-.201.542-.374.815-.519.274-.144.544-.255.81-.333.267-.078.519-.116.758-.116.532 0 .967.194 1.304.582.336.387.505.955.505 1.703v7.774h2.24V8.214a4.01 4.01 0 0 0-.221-1.339 3.56 3.56 0 0 0-.605-1.094"/>
        <g transform="translate(0 .13)">
            <mask id="d" fill="#fff">
                <use xlink:href="#c"/>
            </mask>
            <path fill="#000" d="M5.521 7.721c-.466.16-1.067.22-1.62.22H2.48l.007-6.557h2.166c.45 0 .863.08 1.241.238.379.16.705.381.978.666.274.285.488.626.642 1.024.154.398.231.832.231 1.302 0 .516-.104.983-.297 1.4-.193.416-.461.771-.805 1.063a3.2 3.2 0 0 1-1.123.644m2.754.243c.442-.254.82-.553 1.136-.899a3.8 3.8 0 0 0 .73-1.16 3.68 3.68 0 0 0 .267-1.382c0-.599-.113-1.15-.337-1.655a3.584 3.584 0 0 0-1-1.308c-.44-.368-.993-.654-1.656-.859C6.753.496 5.98.394 5.095.394H0V16.24h2.468l-.007-7.315h1.818l5.005 7.315h2.85L6.858 8.534a5.2 5.2 0 0 0 1.418-.57" mask="url(#d)"/>
        </g>
        <path fill="#000" d="M19.168 13.99c-.225.169-.443.33-.657.48a5.633 5.633 0 0 1-.642.397 3.488 3.488 0 0 1-.654.27c-.228.067-.468.1-.72.1-.239 0-.469-.054-.69-.163a1.96 1.96 0 0 1-.592-.444 2.205 2.205 0 0 1-.557-1.445c0-.267.067-.525.2-.772.133-.246.314-.479.541-.698.228-.218.494-.425.796-.619a9.91 9.91 0 0 1 .951-.54c.333-.165.673-.315 1.02-.449.348-.134.682-.254 1.004-.36v4.242zm2.04-7.437c-.14-.374-.36-.691-.675-.952-.315-.261-.73-.464-1.241-.609-.512-.144-1.14-.216-1.883-.216-.61 0-1.192.068-1.746.206a5.665 5.665 0 0 0-1.451.56c-.414.237-.751.517-.997.842a1.703 1.703 0 0 0-.368 1.047c0 .19.029.366.085.529.056.162.137.303.242.423a1.112 1.112 0 0 0 .851.38c.225 0 .41-.042.553-.126a.972.972 0 0 0 .342-.334c.084-.137.14-.297.173-.48.03-.184.047-.374.047-.572 0-.211.024-.422.073-.63.05-.207.143-.392.28-.555.136-.162.324-.293.562-.391.238-.099.555-.148.933-.148.337 0 .632.047.902.143.27.095.5.252.69.47.188.22.334.506.436.862.1.357.152.792.152 1.307v.708c-.504.128-1.021.265-1.55.413-.53.148-1.043.318-1.542.508-.497.19-.969.406-1.414.645a5.61 5.61 0 0 0-1.168.825c-.334.31-.596.662-.789 1.053-.193.391-.29.83-.29 1.317 0 .402.067.776.2 1.121.134.346.335.646.587.9.253.253.558.452.915.597.358.144.758.217 1.199.217.477 0 .896-.055 1.257-.164.361-.11.69-.252.989-.429.298-.176.575-.37.831-.581.256-.212.509-.42.775-.625l.008 1.556h2.252l-.008-8.58a3.526 3.526 0 0 0-.212-1.237zM23.147 1.182v15.431h2.24V.537h-.634zM28.954 7.447c.158-.37.358-.69.6-.958.242-.267.518-.479.83-.634.312-.155.637-.233.974-.233.406 0 .786.078 1.14.233a2.894 2.894 0 0 1 1.547 1.602c.15.37.227.77.227 1.2l-5.606-.01c.035-.43.13-.83.288-1.2m7.247 5.691a4.243 4.243 0 0 1-.931.888 4.977 4.977 0 0 1-1.22.625 4.197 4.197 0 0 1-1.41.238 3.301 3.301 0 0 1-1.609-.402 3.877 3.877 0 0 1-1.262-1.111 5.429 5.429 0 0 1-.82-1.687 7.31 7.31 0 0 1-.294-2.121h8.425c0-.635-.124-1.242-.369-1.82a4.789 4.789 0 0 0-1.03-1.528 4.959 4.959 0 0 0-1.589-1.053 5.19 5.19 0 0 0-2.04-.391c-.835 0-1.594.158-2.278.476a5.113 5.113 0 0 0-1.75 1.322 6.089 6.089 0 0 0-1.125 2.01 7.743 7.743 0 0 0-.4 2.528c0 .762.144 1.475.436 2.142a5.57 5.57 0 0 0 2.945 2.925c.67.29 1.386.434 2.15.434.582 0 1.16-.111 1.73-.333a6.06 6.06 0 0 0 1.579-.905c.48-.38.9-.826 1.262-1.338.36-.51.622-1.06.784-1.645l-.642-.285a3.235 3.235 0 0 1-.542 1.031M38.8 5.421V16.37h2.23V4.776h-.652zM50.085 10.393a2.976 2.976 0 0 1-.536.889 2.503 2.503 0 0 1-.779.597c-.294.145-.599.217-.915.217-.386 0-.738-.094-1.057-.28a2.587 2.587 0 0 1-.82-.773 3.878 3.878 0 0 1-.531-1.158 5.253 5.253 0 0 1-.19-1.439c0-.43.042-.832.127-1.206.084-.373.215-.698.394-.973.179-.275.407-.492.684-.65.276-.16.604-.238.983-.238.386 0 .75.1 1.094.301.343.201.645.478.904.83.26.353.465.768.616 1.244.15.475.226.992.226 1.55 0 .387-.067.75-.2 1.089m-4.255 5.982c.361.038.782.076 1.263.111.48.035.997.065 1.551.09.554.024 1.1.037 1.64.037.87 0 1.556.116 2.057.349.502.232.752.603.752 1.11 0 .248-.109.493-.326.736-.218.243-.533.463-.947.661-.413.197-.918.356-1.514.476s-1.269.18-2.02.18c-.708 0-1.329-.053-1.861-.159-.533-.105-.977-.247-1.33-.423-.355-.176-.621-.38-.8-.613a1.18 1.18 0 0 1-.268-.73c0-.155.023-.32.068-.492a2.72 2.72 0 0 1 .52-1.01 2.52 2.52 0 0 1 .443-.423c.154.028.412.061.772.1m4.565-11.092a4.939 4.939 0 0 0-.757-.259 8.04 8.04 0 0 0-.92-.18 7.21 7.21 0 0 0-1-.068 5.79 5.79 0 0 0-1.95.323 5.107 5.107 0 0 0-1.578.877c-.445.37-.723.805-.98 1.302a3.403 3.403 0 0 0-.384 1.581c0 .755.17 1.404.597 1.986a4.131 4.131 0 0 0 1.76 1.378c-.315.12-2.357.735-2.357 2.496 0 .995 1.327 1.312 1.537 1.375-.287.226-.578.46-.873.704a8.031 8.031 0 0 0-.804.761c-.242.265-.44.542-.594.831-.155.29-.232.589-.232.9 0 .697.461 1.258 1.383 1.681.922.423 2.316.635 4.181.635 1.045 0 1.98-.102 2.808-.307.827-.204 1.53-.496 2.11-.873.578-.377 1.02-.834 1.324-1.37a3.57 3.57 0 0 0 .458-1.798c0-.367-.054-.702-.163-1.005a1.75 1.75 0 0 0-.563-.777c-.266-.215-.622-.388-1.067-.518-.446-.13-1.001-.21-1.667-.239l-4.187-.18c-.448-.013-.797-.091-1.047-.232-.248-.141-.372-.325-.372-.55 0-.24.073-.477.22-.71.148-.232.33-.436.547-.612.217.07.475.13.773.18.298.049.588.074.868.074.772 0 1.478-.096 2.12-.286a5.151 5.151 0 0 0 1.656-.81 3.819 3.819 0 0 0 1.083-1.248c.26-.483.39-1.02.39-1.613 0-.381-.067-.763-.2-1.147a4.01 4.01 0 0 0-.537-1.043h2.146v-.941h-3.219a1.838 1.838 0 0 0-.51-.318M90.559 11.302c-.303.853-.72 1.57-1.248 2.15a5.189 5.189 0 0 1-1.857 1.313 5.842 5.842 0 0 1-2.272.444h-2.537V1.695h2.558c.846 0 1.625.165 2.338.495.713.33 1.326.789 1.841 1.377.515.587.916 1.289 1.203 2.104.286.815.43 1.709.43 2.679 0 1.115-.153 2.099-.456 2.952m-18.737 4.091c-1.534.097-3.097-1.086-3.535-2.532-1.042-3.44 1.055-4.889 1.055-4.889 2.75 3.939 5.354 6.146 5.354 6.146s-1.04 1.16-2.874 1.275m19.58-12.958c-.702-.668-1.58-1.153-2.633-1.456-1.054-.304-2.314-.455-3.78-.455H80.25v14.671c-3.394-.447-10.024-7.394-10.528-10.521-.11-.683-.036-1.269.306-1.965.344-.699 1.317-1.418 2.248-1.325 1.002.1 1.617.7 1.617.7l.524-.433S73.657.57 71.968.536c-.8-.015-4.134.403-3.965 4.227.06 1.34.882 2.469.882 2.469s-2.042 1.015-2.845 3.35c-.235.685-.285 1.776-.145 2.487.265 1.344 1.496 3.13 3.81 3.458a9.92 9.92 0 0 0 2.703 0c1.907-.28 3.121-1.769 3.121-1.769s1.339 1.224 2.782 1.612H85.572c1.323 0 2.498-.21 3.524-.632 1.026-.42 1.89-.997 2.588-1.729a7.43 7.43 0 0 0 1.596-2.565 8.908 8.908 0 0 0 .547-3.14c0-1.175-.203-2.258-.609-3.248a7.456 7.456 0 0 0-1.815-2.621M101.82 5.34a1.93 1.93 0 0 0-.553-.296 2.033 2.033 0 0 0-.684-.11c-.301 0-.598.062-.888.19-.292.126-.574.3-.847.518a6.144 6.144 0 0 0-.79.761 9.89 9.89 0 0 0-.703.91v-2.38h-.652l-1.578.645V16.37h2.23V8.656c.154-.254.308-.488.462-.703a5.28 5.28 0 0 1 .458-.56c.15-.16.301-.282.452-.371a.991.991 0 0 1 .483-.147c.15.004.25.013.445.103.247.112.44.37.742.507.17.077.39.142.641.142.389 0 .696-.168.953-.423.189-.187.338-.54.338-.906 0-.184-.045-.358-.136-.524a1.417 1.417 0 0 0-.374-.434M122.544 4.48h-2.111l-5.002 3.59V.524h-.64l-1.6.645v15.2h2.24V9.061l-.002-.002.001.001V9.06v.002l5.003 7.308h2.85l-5.673-8.3z"/>
    </g>
</svg>
